{"title":"Clint Eastwood Collection - Pale Rider (1985)(Multi) 2Lions-Team","uid":5652237,"size":4253973927,"categoryP":"video","categoryS":"movies_dvdr","magnet":"?xt=urn:btih:38263326b562061c1a7ff18fecc66f88ab6082f0&amp;dn=Clint+Eastwood+Collection+-+Pale+Rider+%281985%29%28Multi%29+2Lions-Team&amp;tr=udp%3A%2F%2Ftracker.openbittorrent.com%3A80&amp;tr=udp%3A%2F%2Fopen.demonii.com%3A1337&amp;tr=udp%3A%2F%2Ftracker.coppersurfer.tk%3A6969&amp;tr=udp%3A%2F%2Fexodus.desync.com%3A6969","seeders":4,"leechers":1,"uploader":"Pioen","files":-1,"time":1277672547,"description":"Clint Eastwood Collection - Pale Rider (1985)  \n\n\nVerenigde Staten\nWestern / Actie\n115 minuten\n\ngeregisseerd door Clint Eastwood\nmet Clint Eastwood, Michael Moriarty en Chris Penn\n\nEen mijndorpje in CaliforniÃƒÂ« wordt aangevallen door de brutale bende van de tirranieke LaHood. Huizen en winkels worden vernietigd en de mensen worden geterroriseerd en bedreigd. De 14-jarige Megan ziet het allemaal gebeuren en kan niet verhinderen dat haar hond gedood wordt. Bij het graf van haar lievelingsdier smeekt ze om een mirakel. En plots daagt als uit het niets een man op die zichzelf de priester noemt...\n      \nEnglish\n\nClint Eastwood is a mysterious preacher who comes to a gold mining camp near a small town in the mountains. The miners are in grave danger as a ruthless landowner decides to take their land, with the support of the sheriff. The only one who seems brave enough to save them is this preacher who came from nowhere and nobody knows his past or his real name. Why is the sheriff afraid of him? Why is he such a good shooter? Is he really a preacher?\n\nCategorie : Beeld \nFormaat : DVD5 \nBron : Retail\nAudio : English, 5.1 French 3.1 Italian, 3.1\nSubs : English, French, Italian, Dutch, Arabic, Spanish,Portuguese, German\nMenu : Yes \nGenre : Western\nCover : Yes\n\nVideo\nID                               : 224 (0xE0)\nFormat                           : MPEG Video\nFormat version                   : Version 2\nFormat profile                   : Main@Main\nFormat settings, Matrix          : Default\nDuration                         : 28mn 56s\nBit rate mode                    : Variable\nBit rate                         : 3 982 Kbps\nNominal bit rate                 : 7 500 Kbps\nWidth                            : 720 pixels\nHeight                           : 576 pixels\nDisplay aspect ratio             : 16/9\nFrame rate                       : 25.000 fps\nStandard                         : PAL\nColorimetry                      : 4:2:0\nScan type                        : Interlaced\nScan order                       : Top Field First\nBits/(Pixel*Frame)               : 0.384\nStream size                      : 824 MiB (80%)\n\nAudio #1\nID                               : 128 (0x80)\nFormat                           : AC-3\nFormat/Info                      : Audio Coding 3\nDuration                         : 28mn 56s\nBit rate mode                    : Constant\nBit rate                         : 384 Kbps\nChannel(s)                       : 6 channels\nChannel positions                : Front: L C R, Surround: L R, LFE\nSampling rate                    : 48.0 KHz\nVideo delay                      : -728ms\nStream size                      : 79.5 MiB (8%)\n\n\nWeblink : &lt;a href=&quot; http://www.moviemeter.nl/film/2244&quot; rel=&quot;nofollow&quot; target=&quot;_NEW&quot;&gt; http://www.moviemeter.nl/film/2244&lt;/a&gt; \nWeblink : &lt;a href=&quot; http://www.imdb.com/title/tt0089767&quot; rel=&quot;nofollow&quot; target=&quot;_NEW&quot;&gt; http://www.imdb.com/title/tt0089767&lt;/a&gt;\n\n*****************************************\n\nBrought to you by \nPioen\n\n2Lions Team\n\nmeer zien??\nKom dan eens kijken op ons forum \n\n\n\n\n2Lions the site to be for all your Dutch MOVIES and more\n\n******************************************\n\n\nDON T HIT AND RUN Niet gelijk afhaken als de FILM binnen is blijf seeden. \n\nDon`t quit after you finished the download, but keep seeding\n\n\nThere are fake torrents from uploaders who use our team name.\nThose are not ours, or members from our team.\nWe 2Lions-Team are not responsible for the fake posts on our name\n\nWij 2Lions-Team zijn niet verantwoordelijk voor die zieke FAKE posten die op onze naam worden gedaan\n \n\n\n \n \n \n","torrent":{"xt":"urn:btih:38263326b562061c1a7ff18fecc66f88ab6082f0","amp;dn":"Clint+Eastwood+Collection+-+Pale+Rider+%281985%29%28Multi%29+2Lions-Team","amp;tr":["udp%3A%2F%2Ftracker.openbittorrent.com%3A80","udp%3A%2F%2Fopen.demonii.com%3A1337","udp%3A%2F%2Ftracker.coppersurfer.tk%3A6969","udp%3A%2F%2Fexodus.desync.com%3A6969"],"infoHash":"38263326b562061c1a7ff18fecc66f88ab6082f0","infoHashBuffer":{"type":"Buffer","data":[56,38,51,38,181,98,6,28,26,127,241,143,236,198,111,136,171,96,130,240]},"announce":[],"urlList":[]}}